<?xml version="1.0" encoding="utf-8"?>
<!-- Generator: Adobe Illustrator 27.2.0, SVG Export Plug-In . SVG Version: 6.00 Build 0)  -->
<svg version="1.1" id="Layer_1" xmlns="http://www.w3.org/2000/svg" xmlns:xlink="http://www.w3.org/1999/xlink" x="0px" y="0px"
	 viewBox="0 0 247 43.3" style="enable-background:new 0 0 247 43.3;" xml:space="preserve">
<style type="text/css">
	.st0{fill:#606060;}
	.st1{fill:#3E8EDE;}
	.st2{fill:#FFFFFF;}
</style>
<g>
	<g>
		<g>
			<g>
				<g>
					<path class="st0" d="M62,15.2c-0.8-1.2-1.9-1.9-3.4-1.9c-1.4,0-2.8,1.1-2.8,2.6c0,3.9,9.1,2.2,9.1,9.9c0,4.6-2.9,7.8-7.5,7.8
						c-3.2,0-5.5-1.8-7-4.5l2.9-2.8c0.6,1.8,2.2,3.3,4.1,3.3c1.8,0,2.9-1.6,2.9-3.3c0-2.4-2.2-3-4-3.7c-2.9-1.2-5.1-2.7-5.1-6.3
						c0-3.8,2.8-6.9,6.7-6.9c2,0,4.9,1,6.2,2.5L62,15.2z"/>
					<path class="st0" d="M74.7,33.1h-4.5v-19h-4.6v-3.9h13.7v3.9h-4.6V33.1z"/>
					<polygon class="st0" points="110.9,29.2 112.8,29.2 112.8,33.1 104.6,33.1 104.6,29.2 106.5,29.2 106.5,14.1 104.6,14.1 
						104.6,10.2 112.8,10.2 112.8,14.1 110.9,14.1 					"/>
					<path class="st0" d="M99.5,20.9c1.3,0,2.2,0.5,3.1,1.5v-4.1c-1-0.6-2.3-0.9-3.5-0.9c-2.9,0-5.3,1.5-6.6,3.8
						c-2.7-2.4-7.1-2.4-7.1-5.1c0-1.5,1.4-2.6,2.8-2.6c1.5,0,2.6,0.7,3.4,1.9l2.1-3.1c-1.4-1.5-4.2-2.5-6.2-2.5
						c-3.9,0-6.7,3.1-6.7,6.9c0,3.5,2.2,5,5.1,6.3c1.8,0.7,4,1.4,4,3.7c0,1.8-1.1,3.3-2.9,3.3c-1.9,0-3.5-1.6-4.1-3.3L80,29.5
						c1.6,2.6,3.9,4.5,7,4.5c2.8,0,5-1.2,6.3-3.2c1.3,1.6,3.3,2.7,5.7,2.7c1.3,0,2.5-0.3,3.7-0.9v-4.1c-0.8,0.9-1.8,1.4-3,1.4
						c-2.4,0-3.9-1.9-3.9-4.3C95.7,23.1,97.1,20.9,99.5,20.9z"/>
				</g>
			</g>
			<g>
				<path class="st0" d="M134.3,10.8c-0.4-0.5-0.9-0.9-1.6-0.9c-0.7,0-1.3,0.5-1.3,1.2c0,1.8,4.3,1.1,4.3,4.7c0,2.2-1.3,3.7-3.6,3.7
					c-1.5,0-2.6-0.9-3.3-2.1l1.4-1.3c0.3,0.8,1,1.6,2,1.6c0.9,0,1.4-0.7,1.4-1.6c0-1.1-1-1.4-1.9-1.8c-1.4-0.6-2.4-1.3-2.4-3
					c0-1.8,1.3-3.2,3.2-3.2c1,0,2.3,0.5,3,1.2L134.3,10.8z"/>
				<path class="st0" d="M138.9,19.3h-2.1V8.4h2.9c2.3,0,3.7,0.9,3.7,3.4c0,2.3-1.2,3.4-3.5,3.4h-1L138.9,19.3L138.9,19.3z
					 M138.9,13.5h0.4c1.2,0,1.9-0.3,1.9-1.7s-0.8-1.6-2-1.6h-0.4v3.3H138.9z"/>
				<path class="st0" d="M145.4,17l-0.9,2.3h-2.2l4.2-11.1h1.6l4.1,11.1H150l-0.8-2.3H145.4z M147.2,11.3L147.2,11.3l-1.2,3.9h2.6
					L147.2,11.3z"/>
				<path class="st0" d="M159.9,11.3c-0.6-0.7-1.5-1.1-2.4-1.1c-2,0-3.2,1.9-3.2,3.7s1.2,3.6,3.2,3.6c0.9,0,1.8-0.5,2.4-1.1v2.5
					c-0.8,0.4-1.6,0.6-2.5,0.6c-3,0-5.3-2.6-5.3-5.6c0-3.1,2.2-5.8,5.3-5.8c0.8,0,1.7,0.2,2.4,0.6v2.6H159.9z"/>
				<path class="st0" d="M163.4,10.3v2.4h3.4v1.8h-3.4v2.9h3.5v1.8h-5.6V8.4h5.6v1.8h-3.5V10.3z"/>
				<path class="st0" d="M175.9,19.3h-2.1v-9h-2.2V8.4h6.5v1.8h-2.2V19.3z"/>
				<path class="st0" d="M181,10.3v2.4h3.4v1.8H181v2.9h3.5v1.8h-5.6V8.4h5.6v1.8H181V10.3z"/>
				<path class="st0" d="M188,17.4h3v1.8h-5.1V8.4h2.1V17.4z"/>
				<path class="st0" d="M193.8,10.3v2.4h3.4v1.8h-3.4v2.9h3.5v1.8h-5.6V8.4h5.6v1.8h-3.5V10.3z"/>
				<path class="st0" d="M203.8,10.8c-0.4-0.5-0.9-0.9-1.6-0.9c-0.7,0-1.3,0.5-1.3,1.2c0,1.8,4.3,1.1,4.3,4.7c0,2.2-1.4,3.7-3.6,3.7
					c-1.5,0-2.6-0.9-3.3-2.1l1.4-1.3c0.3,0.8,1,1.6,2,1.6c0.9,0,1.4-0.7,1.4-1.6c0-1.1-1-1.4-1.9-1.8c-1.4-0.6-2.4-1.3-2.4-3
					c0-1.8,1.3-3.2,3.2-3.2c1,0,2.3,0.5,3,1.2L203.8,10.8z"/>
				<path class="st0" d="M213.5,11.3c-0.6-0.7-1.5-1.1-2.4-1.1c-2,0-3.2,1.9-3.2,3.7s1.2,3.6,3.2,3.6c0.9,0,1.8-0.5,2.4-1.1v2.5
					c-0.8,0.4-1.6,0.6-2.5,0.6c-3,0-5.3-2.6-5.3-5.6c0-3.1,2.2-5.8,5.3-5.8c0.8,0,1.7,0.2,2.4,0.6v2.6H213.5z"/>
				<path class="st0" d="M214.4,13.8c0-3,2.2-5.7,5.4-5.7s5.4,2.7,5.4,5.7c0,3.1-2.2,5.7-5.4,5.7C216.6,19.5,214.4,16.9,214.4,13.8z
					 M216.6,13.7c0,1.6,1.4,3.7,3.2,3.7s3.2-2.1,3.2-3.7c0-1.8-1.3-3.5-3.2-3.5C217.9,10.2,216.6,12,216.6,13.7z"/>
				<path class="st0" d="M228.2,19.3h-2.1V8.4h2.9c2.3,0,3.7,0.9,3.7,3.4c0,2.3-1.2,3.4-3.5,3.4h-1L228.2,19.3L228.2,19.3z
					 M228.2,13.5h0.4c1.2,0,1.9-0.3,1.9-1.7s-0.8-1.6-2-1.6h-0.4v3.3H228.2z"/>
				<path class="st0" d="M235.8,10.3v2.4h3.4v1.8h-3.4v2.9h3.5v1.8h-5.6V8.4h5.6v1.8h-3.5V10.3z"/>
				<path class="st0" d="M134.3,26.4c-0.4-0.5-0.9-0.9-1.6-0.9c-0.7,0-1.3,0.5-1.3,1.2c0,1.8,4.3,1.1,4.3,4.7c0,2.2-1.3,3.7-3.6,3.7
					c-1.5,0-2.6-0.9-3.3-2.1l1.4-1.3c0.3,0.8,1,1.6,2,1.6c0.9,0,1.4-0.7,1.4-1.6c0-1.1-1-1.4-1.9-1.8c-1.4-0.6-2.4-1.3-2.4-3
					c0-1.8,1.3-3.2,3.2-3.2c1,0,2.3,0.5,3,1.2L134.3,26.4z"/>
				<path class="st0" d="M144,26.9c-0.6-0.7-1.5-1.1-2.4-1.1c-2,0-3.2,1.9-3.2,3.7c0,1.8,1.2,3.6,3.2,3.6c0.9,0,1.8-0.5,2.4-1.1v2.5
					c-0.8,0.4-1.6,0.6-2.5,0.6c-3,0-5.3-2.6-5.3-5.6c0-3.1,2.2-5.8,5.3-5.8c0.8,0,1.7,0.2,2.4,0.6v2.6H144z"/>
				<path class="st0" d="M147.5,34.8h-2.1V24h2.1V34.8z"/>
				<path class="st0" d="M151.2,25.8v2.4h3.4V30h-3.4v3h3.5v1.8h-5.6V24h5.6v1.8H151.2z"/>
				<path class="st0" d="M156.1,23.7h1.5l5.7,7.6l0,0V24h2.1v11h-1.5l-5.7-7.6l0,0v7.4h-2.1V23.7z"/>
				<path class="st0" d="M174.2,26.9c-0.6-0.7-1.5-1.1-2.4-1.1c-2,0-3.2,1.9-3.2,3.7c0,1.8,1.2,3.6,3.2,3.6c0.9,0,1.8-0.5,2.4-1.1
					v2.5c-0.8,0.4-1.6,0.6-2.5,0.6c-3,0-5.3-2.6-5.3-5.6c0-3.1,2.2-5.8,5.3-5.8c0.8,0,1.7,0.2,2.4,0.6v2.6H174.2z"/>
				<path class="st0" d="M177.7,25.8v2.4h3.4V30h-3.4v3h3.5v1.8h-5.6V24h5.6v1.8H177.7z"/>
				<path class="st0" d="M188.9,34.8h-2.1V24h2.1V34.8z"/>
				<path class="st0" d="M190.4,23.7h1.5l5.7,7.6l0,0V24h2.1v11h-1.5l-5.7-7.6l0,0v7.4h-2.1V23.7z"/>
				<path class="st0" d="M206.4,26.4c-0.4-0.5-0.9-0.9-1.6-0.9c-0.7,0-1.3,0.5-1.3,1.2c0,1.8,4.3,1.1,4.3,4.7c0,2.2-1.4,3.7-3.6,3.7
					c-1.5,0-2.6-0.9-3.3-2.1l1.4-1.3c0.3,0.8,1,1.6,2,1.6c0.9,0,1.4-0.7,1.4-1.6c0-1.1-1-1.4-1.9-1.8c-1.4-0.6-2.4-1.3-2.4-3
					c0-1.8,1.3-3.2,3.2-3.2c1,0,2.3,0.5,3,1.2L206.4,26.4z"/>
				<path class="st0" d="M212.4,34.8h-2.1v-9h-2.2V24h6.5v1.8h-2.2V34.8z"/>
				<path class="st0" d="M217.5,34.8h-2.1V24h2.1V34.8z"/>
				<path class="st0" d="M222.5,34.8h-2.1v-9h-2.2V24h6.5v1.8h-2.2V34.8z"/>
				<path class="st0" d="M225.4,24h2.1v6.1c0,1.3,0.1,3.2,1.9,3.2c1.8,0,1.9-1.9,1.9-3.2V24h2.1v6.5c0,2.6-1.1,4.6-4,4.6s-4-2-4-4.6
					V24z"/>
				<path class="st0" d="M238.5,34.8h-2.1v-9h-2.2V24h6.5v1.8h-2.2V34.8z"/>
				<path class="st0" d="M243.6,25.8v2.4h3.4V30h-3.4v3h3.5v1.8h-5.6V24h5.6v1.8H243.6z"/>
			</g>
			<rect x="120.6" y="8.4" class="st0" width="1.2" height="26.4"/>
		</g>
	</g>
	<g>
		<g>
			<circle class="st1" cx="21.6" cy="21.6" r="21.6"/>
			<path class="st2" d="M21.6,42C10.4,42,1.2,32.9,1.2,21.6S10.4,1.2,21.6,1.2C32.9,1.2,42,10.4,42,21.6C42.1,32.9,32.9,42,21.6,42z
				 M21.6,1.8c-10.9,0-19.8,8.9-19.8,19.8s8.9,19.8,19.8,19.8s19.8-8.9,19.8-19.8S32.6,1.8,21.6,1.8z"/>
			<path class="st2" d="M31.3,13.8c-0.2-5.2-4.4-9.3-9.6-9.3s-9.5,4.2-9.6,9.3h-0.9v21.5h21.1V13.8H31.3z M21.6,5c5,0,9,4.1,9,9
				c0,3-1.5,5.7-3.8,7.3L26,13.5l0,0c-0.2-2.3-2.2-4.1-4.5-4.1c-2.4,0-4.3,1.8-4.5,4.1l0,0l-0.8,7.8c-2.3-1.6-3.8-4.3-3.8-7.3
				C12.6,9.1,16.6,5,21.6,5z M21.6,32.4L21,29.7c0.2,0,0.4,0,0.6,0s0.4,0,0.6,0L21.6,32.4z M22.8,29.7c3.2,0.4,5.9,2.2,7.5,5h-8.6
				L22.8,29.7z M21.5,34.7h-8.6c1.6-2.8,4.4-4.6,7.5-5L21.5,34.7z M21.6,29.1c-0.2,0-0.5,0-0.7,0l-0.2-0.8c0.3,0,0.6,0.1,0.9,0.1
				l0,0c0.3,0,0.6,0,0.9-0.1l-0.2,0.8C22.1,29.1,21.9,29.1,21.6,29.1z M21.6,27.7L21.6,27.7c-0.4,0-0.7-0.1-1.1-0.1l-0.9-4.1
				c0.6,0.1,1.3,0.2,2,0.2s1.3-0.1,2-0.2l-0.9,4C22.4,27.7,22,27.7,21.6,27.7z M17.4,16.3l0.5,2.5c-0.3,0.3-0.6,0.6-0.9,1L17.4,16.3
				z M18.3,17.1c0.3,0.3,0.6,0.6,0.9,0.8c-0.2,0.1-0.4,0.3-0.7,0.4L18.3,17.1z M19.8,18.3c0.6,0.2,1.2,0.4,1.8,0.4
				c0.6,0,1.2-0.1,1.8-0.4c0.4,0.2,0.8,0.4,1.2,0.7l-0.9,3.9c-0.7,0.2-1.4,0.3-2.1,0.3s-1.4-0.1-2.1-0.3L18.7,19
				C19,18.7,19.4,18.4,19.8,18.3z M26.1,19.8c-0.2-0.4-0.6-0.7-0.9-1l0.5-2.5L26.1,19.8z M24.7,18.3c-0.2-0.2-0.4-0.3-0.7-0.4
				c0.3-0.2,0.6-0.5,0.9-0.8L24.7,18.3z M25.1,19.4c0.6,0.7,1.1,1.5,1.2,2.4c-0.6,0.4-1.3,0.7-1.9,0.9L25.1,19.4z M25.6,14.1
				c0,2.2-1.8,3.9-3.9,3.9c-2.2,0-3.9-1.8-3.9-3.9c0-2.2,1.8-3.9,3.9-3.9C23.8,10.1,25.6,11.9,25.6,14.1z M18.1,19.4l0.7,3.3
				c-0.7-0.2-1.3-0.5-1.9-0.9C17.1,20.9,17.5,20.1,18.1,19.4z M19,23.4l0.9,4c-1.2-0.5-2-1.3-2.4-2.2l-2.1-3.9
				C16.4,22.3,17.6,23,19,23.4z M24.2,23.4c1.4-0.4,2.6-1.1,3.7-2l-2.1,3.9c-0.4,0.8-1.2,1.7-2.4,2.1L24.2,23.4z M11.7,14.4H12
				c0,1.6,0.5,3.1,1.2,4.4l0,0l3.7,6.7c0.5,1,1.6,2.1,3.1,2.6l0.2,1.1c-3.4,0.4-6.4,2.5-8.1,5.6h-0.5L11.7,14.4L11.7,14.4z
				 M31.6,34.7h-0.5c-1.7-3.1-4.7-5.1-8.1-5.6l0.2-1.1c1.5-0.5,2.6-1.6,3.1-2.6l3.7-6.7l0,0c0.8-1.3,1.2-2.8,1.2-4.4h0.3L31.6,34.7
				L31.6,34.7z"/>
		</g>
	</g>
</g>
</svg>
